<svg width="24" height="25" viewBox="0 0 24 25" fill="none" xmlns="http://www.w3.org/2000/svg">
<path fill-rule="evenodd" clip-rule="evenodd" d="M11 2.46939C9.56238 2.46955 8.14571 2.81409 6.86859 3.47418C5.59146 4.13428 4.49105 5.09071 3.65947 6.26341C2.82788 7.43612 2.28933 8.79097 2.08889 10.2146C1.88844 11.6381 2.03194 13.089 2.50738 14.4458C2.98281 15.8025 3.77634 17.0256 4.82154 18.0127C5.86673 18.9998 7.13318 19.7221 8.51487 20.1192C9.89656 20.5163 11.3533 20.5767 12.7631 20.2952C14.1729 20.0137 15.4947 19.3986 16.618 18.5014L20.293 22.1764C20.4816 22.3585 20.7342 22.4593 20.9964 22.4571C21.2586 22.4548 21.5094 22.3496 21.6948 22.1642C21.8802 21.9788 21.9854 21.728 21.9877 21.4658C21.99 21.2036 21.8892 20.951 21.707 20.7624L18.032 17.0874C19.09 15.7633 19.7526 14.1673 19.9435 12.4832C20.1344 10.799 19.8459 9.09525 19.1112 7.56789C18.3764 6.04052 17.2253 4.75167 15.7904 3.84968C14.3554 2.9477 12.6949 2.46924 11 2.46939ZM5 11.4694C5 10.6815 5.1552 9.90124 5.45673 9.17329C5.75825 8.44534 6.20021 7.7839 6.75736 7.22675C7.31451 6.6696 7.97595 6.22764 8.7039 5.92611C9.43186 5.62459 10.2121 5.46939 11 5.46939C11.7879 5.46939 12.5682 5.62459 13.2961 5.92611C14.0241 6.22764 14.6855 6.6696 15.2426 7.22675C15.7998 7.7839 16.2418 8.44534 16.5433 9.17329C16.8448 9.90124 17 10.6815 17 11.4694C17 13.0607 16.3679 14.5868 15.2426 15.712C14.1174 16.8372 12.5913 17.4694 11 17.4694C9.4087 17.4694 7.88258 16.8372 6.75736 15.712C5.63214 14.5868 5 13.0607 5 11.4694Z" fill="black"/>
</svg>
