<svg width="24" height="25" viewBox="0 0 24 25" fill="none" xmlns="http://www.w3.org/2000/svg">
<path d="M13.028 2.93848C14.153 2.94148 14.724 2.94748 15.217 2.96148L15.411 2.96848C15.635 2.97648 15.856 2.98648 16.123 2.99848C17.187 3.04848 17.913 3.21648 18.55 3.46348C19.21 3.71748 19.766 4.06148 20.322 4.61648C20.8307 5.11621 21.2242 5.72095 21.475 6.38848C21.722 7.02548 21.89 7.75148 21.94 8.81648C21.952 9.08248 21.962 9.30348 21.97 9.52848L21.976 9.72248C21.991 10.2145 21.997 10.7855 21.999 11.9105L22 12.6565V13.9665C22.0024 14.6959 21.9948 15.4253 21.977 16.1545L21.971 16.3485C21.963 16.5735 21.953 16.7945 21.941 17.0605C21.891 18.1255 21.721 18.8505 21.475 19.4885C21.2242 20.156 20.8307 20.7607 20.322 21.2605C19.8223 21.7692 19.2175 22.1627 18.55 22.4135C17.913 22.6605 17.187 22.8285 16.123 22.8785L15.411 22.9085L15.217 22.9145C14.724 22.9285 14.153 22.9355 13.028 22.9375L12.282 22.9385H10.973C10.2433 22.941 9.51353 22.9334 8.784 22.9155L8.59 22.9095C8.35261 22.9005 8.11528 22.8902 7.878 22.8785C6.814 22.8285 6.088 22.6605 5.45 22.4135C4.78283 22.1625 4.17845 21.769 3.679 21.2605C3.16995 20.7608 2.77611 20.1561 2.525 19.4885C2.278 18.8515 2.11 18.1255 2.06 17.0605L2.03 16.3485L2.025 16.1545C2.00657 15.4253 1.99824 14.6959 2 13.9665V11.9105C1.99724 11.1811 2.00457 10.4517 2.022 9.72248L2.029 9.52848C2.037 9.30348 2.047 9.08248 2.059 8.81648C2.109 7.75148 2.277 7.02648 2.524 6.38848C2.7757 5.72067 3.17023 5.11591 3.68 4.61648C4.17916 4.10803 4.78319 3.71455 5.45 3.46348C6.088 3.21648 6.813 3.04848 7.878 2.99848C8.144 2.98648 8.366 2.97648 8.59 2.96848L8.784 2.96248C9.5132 2.94471 10.2426 2.93704 10.972 2.93948L13.028 2.93848ZM12 7.93848C10.6739 7.93848 9.40215 8.46526 8.46447 9.40294C7.52679 10.3406 7 11.6124 7 12.9385C7 14.2646 7.52679 15.5363 8.46447 16.474C9.40215 17.4117 10.6739 17.9385 12 17.9385C13.3261 17.9385 14.5979 17.4117 15.5355 16.474C16.4732 15.5363 17 14.2646 17 12.9385C17 11.6124 16.4732 10.3406 15.5355 9.40294C14.5979 8.46526 13.3261 7.93848 12 7.93848ZM12 9.93848C12.394 9.93841 12.7841 10.0159 13.1481 10.1666C13.5121 10.3174 13.8428 10.5383 14.1215 10.8168C14.4001 11.0953 14.6211 11.426 14.772 11.79C14.9228 12.1539 15.0004 12.544 15.0005 12.938C15.0006 13.3319 14.923 13.7221 14.7723 14.0861C14.6216 14.4501 14.4007 14.7808 14.1222 15.0594C13.8436 15.3381 13.513 15.5591 13.149 15.7099C12.7851 15.8607 12.395 15.9384 12.001 15.9385C11.2054 15.9385 10.4423 15.6224 9.87968 15.0598C9.31707 14.4972 9.001 13.7341 9.001 12.9385C9.001 12.1428 9.31707 11.3798 9.87968 10.8172C10.4423 10.2545 11.2054 9.93848 12.001 9.93848M17.251 6.43848C16.9195 6.43848 16.6015 6.57017 16.3671 6.80459C16.1327 7.03901 16.001 7.35696 16.001 7.68848C16.001 8.02 16.1327 8.33794 16.3671 8.57236C16.6015 8.80678 16.9195 8.93848 17.251 8.93848C17.5825 8.93848 17.9005 8.80678 18.1349 8.57236C18.3693 8.33794 18.501 8.02 18.501 7.68848C18.501 7.35696 18.3693 7.03901 18.1349 6.80459C17.9005 6.57017 17.5825 6.43848 17.251 6.43848Z" fill="black"/>
</svg>
