<svg width="20" height="20" viewBox="0 0 20 20" fill="none" xmlns="http://www.w3.org/2000/svg">
<path fill-rule="evenodd" clip-rule="evenodd" d="M10.6374 6.3085V8.42976C11.0816 7.7531 11.6939 7.20338 12.4144 6.83439C13.1348 6.4654 13.9387 6.28979 14.7474 6.32475C19.0662 6.32475 19.9999 9.02476 19.9999 12.5373V19.6886H15.9999V13.3485C15.9999 11.836 15.6949 9.89102 13.3399 9.89102C11.0561 9.89102 10.6661 11.5373 10.6661 13.236V19.6886H6.67863V6.3085H10.6374ZM3.99986 2.94599C3.99937 3.34224 3.88191 3.72953 3.66221 4.05931C3.44251 4.38908 3.13035 4.64666 2.76486 4.79974C2.39952 4.9516 1.99726 4.99132 1.60927 4.91385C1.22128 4.83639 0.865117 4.64524 0.586098 4.36474C0.306554 4.08406 0.116239 3.727 0.0390861 3.33845C-0.0380671 2.94989 0.00138636 2.5472 0.152484 2.18102C0.303582 1.81483 0.559579 1.50149 0.888283 1.2804C1.21699 1.05932 1.60372 0.940355 1.99985 0.938477C2.26313 0.938475 2.52382 0.990454 2.76696 1.09143C3.0101 1.19241 3.23092 1.3404 3.41673 1.52691C3.60255 1.71343 3.74971 1.93479 3.84978 2.17831C3.94985 2.42183 4.00085 2.68271 3.99986 2.94599Z" fill="black"/>
<path d="M4.00002 6.32568H0V19.6895H4.00002V6.32568Z" fill="black"/>
</svg>
