<svg width="24" height="25" viewBox="0 0 24 25" fill="none" xmlns="http://www.w3.org/2000/svg">
<path d="M16.6 6.75848C15.9166 5.978 15.5399 4.97588 15.54 3.93848H12.45V16.3385C12.4267 17.0097 12.1435 17.6456 11.6603 18.112C11.1771 18.5784 10.5316 18.8389 9.86 18.8385C8.44 18.8385 7.26 17.6785 7.26 16.2385C7.26 14.5185 8.92 13.2285 10.63 13.7585V10.5985C7.18 10.1385 4.16 12.8185 4.16 16.2385C4.16 19.5685 6.92 21.9385 9.85 21.9385C12.99 21.9385 15.54 19.3885 15.54 16.2385V9.94848C16.793 10.8483 18.2974 11.3311 19.84 11.3285V8.23848C19.84 8.23848 17.96 8.32848 16.6 6.75848Z" fill="black"/>
</svg>
