<svg width="24" height="25" viewBox="0 0 24 25" fill="none" xmlns="http://www.w3.org/2000/svg">
<path fill-rule="evenodd" clip-rule="evenodd" d="M11.5 3.93848C12.3977 3.93848 13.3186 3.96158 14.2111 3.99938L15.2653 4.04978L16.2744 4.10963L17.2193 4.17368L18.0824 4.24088C19.0192 4.31216 19.9008 4.71173 20.572 5.36921C21.2431 6.02668 21.6606 6.89989 21.7512 7.83503L21.7931 8.28128L21.8719 9.23678C21.9454 10.2269 22 11.3063 22 12.3385C22 13.3706 21.9454 14.45 21.8719 15.4402L21.7931 16.3957L21.7512 16.8419C21.6606 17.7772 21.2429 18.6506 20.5716 19.3081C19.9002 19.9656 19.0184 20.365 18.0814 20.4361L17.2204 20.5022L16.2754 20.5673L15.2653 20.6272L14.2111 20.6776C13.3079 20.7167 12.404 20.737 11.5 20.7385C10.596 20.737 9.69208 20.7167 8.7889 20.6776L7.7347 20.6272L6.72565 20.5673L5.78065 20.5022L4.91755 20.4361C3.98075 20.3648 3.09916 19.9652 2.42805 19.3077C1.75693 18.6503 1.33935 17.7771 1.24885 16.8419L1.20685 16.3957L1.1281 15.4402C1.04812 14.4082 1.0054 13.3736 1 12.3385C1 11.3063 1.0546 10.2269 1.1281 9.23678L1.20685 8.28128L1.24885 7.83503C1.33932 6.90006 1.75675 6.02698 2.42765 5.36953C3.09855 4.71207 3.97989 4.3124 4.9165 4.24088L5.77855 4.17368L6.72355 4.10963L7.73365 4.04978L8.78785 3.99938C9.69138 3.96024 10.5956 3.93994 11.5 3.93848ZM9.4 9.79223V14.8847C9.4 15.3698 9.925 15.6722 10.345 15.4307L14.755 12.8845C14.851 12.8292 14.9307 12.7497 14.9861 12.6538C15.0415 12.558 15.0707 12.4492 15.0707 12.3385C15.0707 12.2278 15.0415 12.119 14.9861 12.0231C14.9307 11.9273 14.851 11.8477 14.755 11.7925L10.345 9.24728C10.2492 9.19197 10.1405 9.16286 10.0299 9.16287C9.91928 9.16289 9.81061 9.19204 9.71482 9.24738C9.61904 9.30272 9.53952 9.38231 9.48425 9.47814C9.42899 9.57396 9.39993 9.68265 9.4 9.79328V9.79223Z" fill="black"/>
</svg>
